<svg xmlns="http://www.w3.org/2000/svg" width="161" height="127" fill="none" viewBox="0 0 161 127">
    <path fill="#2B2E42" d="M118.17 0H57.69c-1.324-.001-2.636.259-3.859.765-1.224.506-2.335 1.248-3.272 2.184-.936.937-1.678 2.048-2.184 3.272-.507 1.224-.766 2.535-.765 3.859v80.64c-.001 1.324.258 2.636.765 3.859.506 1.224 1.248 2.335 2.184 3.272.937.936 2.048 1.678 3.272 2.184 1.223.506 2.535.766 3.859.765h60.48c1.324.001 2.635-.259 3.859-.765 1.224-.506 2.335-1.248 3.272-2.184.936-.937 1.678-2.048 2.184-3.272.506-1.223.766-2.535.765-3.859V10.08c.001-1.324-.259-2.635-.765-3.859-.506-1.224-1.248-2.335-2.184-3.272-.937-.936-2.048-1.678-3.272-2.184-1.224-.506-2.535-.766-3.859-.765zM96.4 85.28h-9.07L75.18 71.92h23.54l1.81-21.52 12.2 13.31-.61 7.45-1.26 14.42-14.46-.3z"/>
    <path stroke="#2B2E42" stroke-dasharray="3 3" stroke-miterlimit="10" d="M30 39.25c-5.76 2-11.15 6.25-13.27 12-5.82 15.75 3.49 21.32 5.52 27.09M130.65 12c4.745-.381 9.508.48 13.82 2.498 4.311 2.018 8.023 5.124 10.77 9.012 2.656 3.95 4.262 8.513 4.664 13.257.403 4.743-.411 9.511-2.364 13.853-3.45 7.49-10 13.08-14.16 20.22-2.841 4.93-4.443 10.475-4.67 16.16"/>
    <path fill="#E20917" stroke="#2B2E42" stroke-linecap="round" stroke-linejoin="round" stroke-width="2" d="M2.32 98.14l14.52-14.52 1.32 1.32L30 73.06l5.28 5.28-11.84 11.88 1.32 1.32-14.52 14.52c-1.9 1.9-5.79 1.67-7.69-.23-1.9-1.9-2.13-5.83-.23-7.69z"/>
    <path fill="#fff" stroke="#2B2E42" stroke-linecap="round" stroke-linejoin="round" stroke-width="2" d="M51.16 83.62c14.58 0 26.4-11.82 26.4-26.4 0-14.58-11.82-26.4-26.4-26.4-14.58 0-26.4 11.82-26.4 26.4 0 14.58 11.82 26.4 26.4 26.4z"/>
    <path fill="#2B2E42" stroke="#2B2E42" stroke-linecap="round" stroke-linejoin="round" d="M51.16 78.34c11.664 0 21.12-9.456 21.12-21.12 0-11.664-9.456-21.12-21.12-21.12-11.664 0-21.12 9.456-21.12 21.12 0 11.664 9.456 21.12 21.12 21.12z"/>
    <path stroke="#fff" stroke-linecap="round" stroke-linejoin="round" d="M35.32 57.22c0-4.201 1.669-8.23 4.64-11.2 2.97-2.971 6.999-4.64 11.2-4.64"/>
    <path fill="#E20917" d="M136.22 126.17c11.896 0 21.54-9.644 21.54-21.54 0-11.896-9.644-21.54-21.54-21.54-11.896 0-21.54 9.644-21.54 21.54 0 11.896 9.644 21.54 21.54 21.54z"/>
    <path stroke="#fff" stroke-linecap="round" stroke-linejoin="round" stroke-width="3" d="M124.49 104.63h23.46M136.22 92.9v23.46"/>
    <path fill="#2B2E42" d="M137.1 87.59l-.52-5.33-.52-5.33 4.16 1.4 4.16 1.39-3.64 3.94-3.64 3.93z"/>
</svg>
